<?xml version="1.0" encoding="UTF-8" standalone="no"?>
<!-- Created with Inkscape (http://www.inkscape.org/) -->

<svg
   width="1024"
   height="1024"
   viewBox="0 0 1024 1024"
   version="1.1"
   id="svg1"
   xml:space="preserve"
   xmlns:xlink="http://www.w3.org/1999/xlink"
   xmlns="http://www.w3.org/2000/svg"
   xmlns:svg="http://www.w3.org/2000/svg"><defs
     id="defs1"><linearGradient
       id="linearGradient1"><stop
         style="stop-color:#1d4ed8;stop-opacity:1;"
         offset="0"
         id="stop1" /><stop
         style="stop-color:#2563eb;stop-opacity:0.9999994;"
         offset="1"
         id="stop2" /></linearGradient><linearGradient
       xlink:href="#linearGradient1"
       id="linearGradient2"
       x1="492.02347"
       y1="266.62814"
       x2="500.45163"
       y2="749.47803"
       gradientUnits="userSpaceOnUse" /></defs><g
     id="layer1"><path
       style="display:inline;fill:url(#linearGradient2);fill-opacity:1;stroke:none"
       d="M 359.29825,742.27751 V 593.65869 c 0,-14.12639 4.75862,-47.13048 -19.59809,-41.21052 -17.49626,4.25249 -11.43222,36.15066 -11.43222,49.37639 v 131.4705 c 0,15.47777 -2.58146,38.37171 18.7815,39.93904 22.60621,1.65854 45.92095,0.0737 68.5933,0.0737 h 136.37002 c 46.25802,0 90.68032,3.89848 130.65391,-23.7018 68.81369,-47.51331 74.54356,-152.19233 8.98245,-205.10192 -12.02756,-9.70654 -28.44801,-21.21073 -44.09569,-23.52163 21.22014,-18.08648 41.55652,-32.67081 55.27587,-57.97768 C 740.23829,393.9997 720.0474,298.78439 648.37002,259.92668 617.046,242.94532 585.8895,242.52632 551.19617,242.52632 H 476.88676 369.91388 c -12.30386,0 -30.65488,-3.33304 -38.384,8.98559 -8.00474,12.75788 -3.26194,37.71033 -3.26194,52.25842 0,44.01326 -3.0062,89.21068 0.0731,133.10367 0.88966,12.68137 15.09061,22.19752 25.97199,12.74656 8.54765,-7.42399 4.98523,-25.45868 4.98523,-35.61099 v -97.17384 -31.03031 c 0,-3.25762 -1.15481,-9.3129 2.57072,-10.93949 7.34228,-3.20569 21.26931,-0.49272 29.27617,-0.49272 h 71.04306 80.02552 c 16.27262,0 33.66427,-1.74936 49.8118,0.23375 36.61613,4.49691 68.64598,27.48046 85.53055,60.19368 5.70445,11.05218 9.67574,22.83926 11.70883,35.11324 2.57671,15.55562 2.10985,31.17314 -1.41392,46.54545 -12.20161,53.22907 -64.55298,99.8283 -121.13966,92.85716 -25.60551,-3.15446 -46.80995,-19.73221 -72.67623,-23.21666 -36.50793,-4.91796 -75.15929,-0.23061 -111.87241,-0.23061 -26.61588,0 -54.33787,2.25947 -80.84211,-0.0479 -8.37963,-0.72951 -13.15418,-10.11044 -22.86443,-9.57974 -12.53878,0.68525 -23.52223,10.77013 -23.67788,23.50962 -0.16398,13.4208 8.00959,24.54794 22.04471,25.98838 10.78359,1.10671 15.59948,-8.81414 24.50957,-9.60875 26.50319,-2.36359 54.21937,-0.86448 80.83014,-0.86448 h 69.40989 c 13.78085,0 28.05786,-1.14743 41.64593,1.47378 23.35477,4.50528 42.53803,19.52497 66.14354,23.48505 15.98679,2.68197 32.11483,1.40774 48.17863,2.94373 21.79311,2.08378 42.70674,8.9842 60.42743,22.03653 59.63482,43.92444 49.10885,135.80243 -17.14832,167.87854 -20.01959,9.69179 -40.4065,9.19353 -62.06061,9.19353 H 518.5327 Z"
       id="path2330" /></g></svg>
